<svg height="512" width="512" xmlns="http://www.w3.org/2000/svg"><path d="M101 422h200v80H101z" fill="#868eaf"/><path d="M226 362v60h-50v-60z" fill="#ffd88e"/><path d="M392 141.832C392 250.691 277.715 382 201 382S10 250.691 10 141.832c0-9.202.617-18.274 1.792-27.133C60.042 106.655 98.066 63.858 104.53 10h194.408c6.406 53.304 43.695 95.757 91.225 104.421A205.55 205.55 0 01392 141.832z" fill="#ffcd69"/><circle cx="326.753" cy="300.91" r="10"/><path d="M400.069 113.09a9.977 9.977 0 00-8.109-8.51c-21.09-3.84-40.22-14.98-55.311-32.221-15.279-17.46-24.89-39.43-27.779-63.55C308.26 3.79 304 0 298.939 0H104.53c-5.06 0-9.33 3.79-9.93 8.81C91.72 32.84 81.68 55.6 66.35 72.9c-15.37 17.32-34.81 28.37-56.2 31.931a9.948 9.948 0 00-8.27 8.549C.63 122.77 0 132.35 0 141.83c.03 14.06 1.83 28.81 5.33 43.85 3.319 14.26 8.21 28.92 14.529 43.57 11.83 27.43 28.83 55.04 49.141 79.84 19.87 24.15 42.109 44.58 64.33 59.07 11.235 7.296 22.142 12.911 32.67 16.867V412h-65c-5.522 0-10 4.478-10 10v80c0 5.522 4.478 10 10 10h200c5.522 0 10-4.478 10-10v-80c0-5.522-4.478-10-10-10h-65v-26.968c5.298-1.99 10.698-4.397 16.189-7.232 16.851-8.72 33.91-21.05 50.7-36.63 4.04-3.75 4.28-10.09.53-14.13a10.054 10.054 0 00-7.33-3.2c-2.53 0-4.95.95-6.8 2.67-15.25 14.16-31.26 25.76-46.29 33.52-15.1 7.829-29.589 11.97-41.89 11.97h-.319c-16.15 0-36.23-7.311-56.54-20.601-31.16-20.26-62.34-53.43-85.54-91C33.7 220.02 19.95 177.92 20 141.83c0-6.24.3-12.561.899-18.78 11.561-2.76 22.66-7.39 33-13.76 10.101-6.221 19.32-14 27.41-23.13C97.55 67.84 108.55 44.97 113.13 20h177.21c4.53 24.66 15.33 47.319 31.26 65.53 7.95 9.09 17.021 16.88 26.97 23.14 10.16 6.399 21.101 11.11 32.49 14 .62 6.35.94 12.8.94 19.16.05 35.609-13.38 77.199-37.811 117.109-2.88 4.7-1.39 10.87 3.311 13.75 1.58.96 3.38 1.471 5.21 1.471 3.52 0 6.71-1.79 8.54-4.79 12.649-20.73 22.56-41.801 29.46-62.61 7.47-22.51 11.26-44.35 11.29-64.93 0-9.57-.65-19.24-1.931-28.74zM291 492H111v-60h180zm-90-100c4.865-.006 9.87-.469 15-1.378V412h-30v-21.392c5.112.902 10.117 1.378 15 1.392z"/><path d="M179 452h-38c-5.522 0-10 4.478-10 10s4.478 10 10 10h38c5.522 0 10-4.478 10-10s-4.478-10-10-10zm35 10c0 5.522 4.478 10 10 10h37c5.522 0 10-4.478 10-10s-4.478-10-10-10h-37c-5.522 0-10 4.478-10 10zm57-190c0-5.522-4.478-10-10-10H141c-5.522 0-10 4.478-10 10s4.478 10 10 10h120c5.522 0 10-4.478 10-10zm-92.5 30c-5.522 0-10 4.478-10 10s4.478 10 10 10h45c5.522 0 10-4.478 10-10s-4.478-10-10-10zm-82-90.5c-5.522 0-10 4.478-10 10s4.478 10 10 10h50c5.522 0 10-4.478 10-10s-4.478-10-10-10h-15V122c0-5.522-4.478-10-10-10h-25c-5.522 0-10 4.478-10 10s4.478 10 10 10h15v79.5zM299.41 232c5.522 0 10-4.478 10-10v-63.997h10.09c5.522 0 10-4.478 10-10s-4.478-10-10-10h-10.09V122c0-5.522-4.478-10-10-10s-10 4.478-10 10v16.003h-9.91c-5.522 0-10 4.478-10 10s4.478 10 10 10h9.91V222c0 5.522 4.478 10 10 10zm-78.762-20c-6.246 0-12.334-3.003-16.283-8.033-3.41-4.347-9.696-5.103-14.04-1.69-4.345 3.41-5.102 9.696-1.69 14.04 7.71 9.82 19.678 15.684 32.014 15.684 14.649 0 27.38-10.279 30.27-24.442 2.904-14.234-5.077-27.63-20.335-34.127 0 0-15.145-6.438-18.762-8.707-1.521-.955-1.831-3.329-1.633-5.071.293-2.586 1.815-5.771 5.209-6.95 8.438-2.932 16.64 4.508 16.903 4.751 3.968 3.792 10.257 3.68 14.086-.266 3.846-3.963 3.751-10.294-.213-14.141-6.262-6.076-21.173-14.86-37.347-9.235-10.17 3.537-17.264 12.575-18.512 23.588-1.139 10.043 3.028 19.34 10.875 24.265 4.963 3.114 21.557 10.167 21.557 10.167 6.508 2.771 9.553 6.937 8.575 11.728-.856 4.193-4.797 8.439-10.674 8.439z"/></svg>