<svg height="512" width="512" xmlns="http://www.w3.org/2000/svg"><circle cx="371.905" cy="139.699" fill="#d1f19e" r="132.208"/><path d="M504.114 139.703c0 73.01-59.197 132.207-132.207 132.207-27.226 0-52.535-8.23-73.559-22.342 16.989 7.95 35.936 12.385 55.931 12.385 73.01 0 132.207-59.197 132.207-132.207 0-45.804-23.291-86.164-58.678-109.885 45.075 21.064 76.306 66.808 76.306 119.842z" fill="#bbec6c"/><path d="M458.633 143.035c0-7.341-5.951-13.291-13.291-13.291 7.341 0 13.291-5.951 13.291-13.291 0-7.341-5.951-13.291-13.291-13.291h-42.526c-3.525 0-6.107-3.332-5.218-6.742 4.636-17.779 5.212-31.241 4.647-40.211-.47-7.456-6.638-13.265-14.108-13.265h-1.415c-7.025 0-12.72 5.695-12.72 12.72 0 0 2.676 28.53-27.377 51.974-9.788 7.635-18.879 13.24-18.879 13.24v69.404l12.907 8.017c11.779 7.317 19.545 11.194 33.411 11.194h60.97c7.341 0 13.291-5.951 13.291-13.291s-5.951-13.291-13.291-13.291h10.308c7.341 0 13.291-5.951 13.291-13.291 0-7.341-5.951-13.291-13.291-13.291 7.34-.003 13.291-5.954 13.291-13.294z" fill="#fed2a4"/><path d="M323.345 200.143h-33.603a4.566 4.566 0 01-4.566-4.566v-78.502a4.566 4.566 0 014.566-4.566h33.603a4.566 4.566 0 014.566 4.566v78.502a4.566 4.566 0 01-4.566 4.566z" fill="#99e6fc"/><path d="M327.966 175.573v20c0 2.53-2.05 4.57-4.57 4.57h-33.65c-2.52 0-4.57-2.04-4.57-4.57v-20c0 2.53 2.05 4.57 4.57 4.57h33.65c2.52 0 4.57-2.04 4.57-4.57z" fill="#62dbfb"/><path d="M198.803 504.509H35.011V482.37c0-45.23 36.666-81.896 81.896-81.896 45.23 0 81.896 36.666 81.896 81.896z" fill="#99e6fc"/><path d="M198.801 482.366v22.14h-23.122v-22.14c0-22.614-9.168-43.089-23.989-57.898-12.243-12.255-28.36-20.637-46.349-23.169a81.294 81.294 0 0111.561-.821c22.614 0 43.1 9.168 57.91 23.989 14.821 14.81 23.989 35.285 23.989 57.899z" fill="#62dbfb"/><path d="M116.907 425.53c-10.866 0-19.674-8.808-19.674-19.674v-45.348h39.348v45.348c0 10.865-8.808 19.674-19.674 19.674z" fill="#fed2a4"/><path d="M136.579 360.508v45.354c0 10.862-8.812 19.674-19.674 19.674-3.573 0-6.947-.954-9.837-2.648a19.635 19.635 0 009.837-17.026v-45.354z" fill="#ffbd86"/><path d="M116.912 382.866c-42.565 0-77.07-34.505-77.07-77.07v-62.847h154.14v62.847c0 42.564-34.505 77.07-77.07 77.07z" fill="#fed2a4"/><path d="M193.98 242.945v62.847c0 42.568-34.499 77.078-77.067 77.078-3.931 0-7.792-.289-11.561-.867 37.088-5.572 65.506-37.574 65.506-76.211v-62.847z" fill="#ffbd86"/><path d="M208.008 220.771c-2.178-3.063-2.777-6.951-1.876-10.599 1.917-7.757 2.76-15.975 3.012-24.113.224-7.254-.281-14.559-1.443-21.753-1.255-7.769-8.768-12.911-16.466-11.275-5.125 1.089-9.963 2.038-10.706 2.185-22.669 4.48-44.281 4.97-67.246 6.528-20.901 1.418-41.874 4.522-60.786 14.042-13.536 6.814-21.986 20.014-22.076 34.372v.045c-.016 2.935-.965 5.803-2.774 8.113a66.547 66.547 0 00-14.152 41.022v30.943h26.208l.137-41.531c.016-4.797 5.261-7.632 9.36-5.141l.108.065c11.025 6.643 24.746 9.21 37.75 10.66 17.963 2.002 37.151 2.11 55.189.658 8.781-.707 17.603-1.928 26.053-4.492 4.145-1.258 8.207-2.82 12.049-4.839a48.917 48.917 0 004.121-2.432c4.076-2.683 9.496.161 9.512 5.041l.138 42.011h26.208v-30.943a66.543 66.543 0 00-12.32-38.567z" fill="#596c76"/><path d="M220.328 259.339v30.949h-21.527v-30.949a66.601 66.601 0 00-12.313-38.568c-2.185-3.064-2.786-6.948-1.884-10.602 1.919-7.758 2.763-15.978 3.017-24.105.22-7.26-.277-14.567-1.445-21.758a13.714 13.714 0 00-5.7-9.075c.023 0 .035-.012.058-.012.74-.15 5.572-1.098 10.706-2.185 7.688-1.642 15.203 3.503 16.463 11.272 1.156 7.191 1.665 14.498 1.445 21.758-.254 8.128-1.098 16.348-3.017 24.105-.902 3.653-.301 7.538 1.873 10.602a66.533 66.533 0 0112.324 38.568z" fill="#465a61"/><path d="M39.98 305.374H29.818c-12.112 0-21.931-9.819-21.931-21.931s9.819-21.931 21.931-21.931H39.98zm154.002 0h10.162c12.112 0 21.931-9.819 21.931-21.931s-9.819-21.931-21.931-21.931h-10.162z" fill="#fed2a4"/><path d="M371.905 0c-77.03 0-139.698 62.669-139.698 139.699s62.668 139.698 139.698 139.698 139.698-62.668 139.698-139.698S448.935 0 371.905 0zm0 264.416c-68.769 0-124.717-55.948-124.717-124.717 0-68.77 55.948-124.718 124.717-124.718s124.716 55.948 124.716 124.718c0 68.769-55.947 124.717-124.716 124.717z"/><path d="M461.3 129.743a20.684 20.684 0 004.824-13.291c0-11.459-9.323-20.783-20.782-20.783h-39.828c3.549-14.477 4.965-27.901 4.208-39.934-.718-11.374-10.198-20.284-21.585-20.284h-1.415c-11.144 0-20.21 9.066-20.21 20.21 0 .233.011.467.033.699.022.245 1.986 24.686-24.527 45.37a222.558 222.558 0 01-9.806 7.203c-2.205-2.399-5.358-3.915-8.866-3.915h-33.603c-6.648 0-12.056 5.408-12.056 12.056v78.502c0 6.648 5.408 12.056 12.056 12.056h33.603c4.076 0 7.679-2.038 9.862-5.143l3.494 2.17c11.113 6.904 20.127 11.825 34.972 12.286a7.492 7.492 0 00.464-14.974c-10.79-.334-16.954-3.467-27.532-10.038l-9.204-5.717v-61.355c3.66-2.405 9.579-6.442 15.831-11.32 31.085-24.25 30.527-53.767 30.265-58.086a5.235 5.235 0 015.225-5.024h1.415c3.499 0 6.412 2.743 6.633 6.244.484 7.679.109 20.48-4.42 37.852a12.785 12.785 0 002.273 11.115 12.797 12.797 0 0010.194 5.007h42.526c3.198 0 5.8 2.602 5.8 5.801a5.808 5.808 0 01-5.8 5.801h-31.596c-4.137 0-7.491 3.353-7.491 7.491s3.353 7.491 7.491 7.491h31.596c3.198 0 5.8 2.602 5.8 5.801s-2.602 5.801-5.8 5.801h-31.596c-4.137 0-7.491 3.353-7.491 7.491s3.353 7.491 7.491 7.491h31.596c3.198 0 5.8 2.602 5.8 5.802 0 3.198-2.602 5.8-5.8 5.8h-31.596a7.491 7.491 0 000 14.982h21.288c3.198 0 5.8 2.602 5.8 5.801s-2.602 5.8-5.8 5.8H406.25c-4.138 0-7.491 3.354-7.491 7.491s3.353 7.491 7.491 7.491h28.784c11.459 0 20.782-9.323 20.782-20.782 0-2.776-.557-5.421-1.548-7.844 6.998-3.348 11.856-10.477 11.856-18.739 0-5.052-1.816-9.686-4.824-13.292a20.685 20.685 0 004.824-13.292c0-5.052-1.816-9.686-4.824-13.292zm-140.88 62.909h-27.753V120h27.753zm-92.601 66.687c0-15.461-4.74-30.299-13.706-42.909-.854-1.201-1.112-2.827-.709-4.46 1.872-7.576 2.928-15.974 3.227-25.679.235-7.621-.281-15.418-1.535-23.178a21.358 21.358 0 00-8.975-14.148 21.373 21.373 0 00-16.444-3.26 741.05 741.05 0 01-10.601 2.164c-17.614 3.481-34.578 4.486-52.537 5.548-4.546.269-9.127.54-13.764.855-19.546 1.327-42.393 4.126-63.646 14.825-16.052 8.08-26.09 23.796-26.199 41.066-.007 1.317-.427 2.573-1.182 3.538-10.153 12.97-15.744 29.178-15.744 45.639v6.857a29.26 29.26 0 00-5.607 17.248c0 16.223 13.198 29.422 29.421 29.422h2.851c2.832 34.022 25.883 62.384 57.074 73.001v11.362c-36.043 11.526-62.222 45.325-62.222 85.142v22.139a7.491 7.491 0 007.491 7.491h163.791a7.49 7.49 0 007.491-7.491v-22.139c0-13.089-2.767-25.706-8.224-37.499a7.491 7.491 0 00-13.596 6.291c4.538 9.807 6.839 20.307 6.839 31.208v14.648H42.502v-14.648c0-31.781 20.04-58.946 48.139-69.585 3.072 11.632 13.682 20.234 26.266 20.234 12.579 0 23.186-8.596 26.262-20.222 7.974 3.004 15.443 7.345 22.013 12.953a7.492 7.492 0 009.727-11.396 89.256 89.256 0 00-30.836-17.123V385.87c31.195-10.615 54.25-38.978 57.083-73.004h2.989c16.223 0 29.422-13.198 29.422-29.422a29.26 29.26 0 00-5.746-17.442v-6.663zM32.351 297.884h-2.533c-7.962 0-14.44-6.478-14.44-14.44s6.478-14.44 14.44-14.44h2.533zm96.739 107.971c0 6.718-5.465 12.183-12.183 12.183s-12.183-5.465-12.183-12.183v-16.376c3.98.577 8.05.877 12.188.877 4.135 0 8.201-.299 12.178-.875zm57.401-100.06c0 38.366-31.213 69.579-69.579 69.579-38.079 0-69.095-30.751-69.558-68.722.072-.416-.022-55.47-.022-55.47 12.509 6.92 27.269 9.301 38.895 10.597 17.847 1.99 37.426 2.225 56.62.68 10.994-.884 19.773-2.406 27.628-4.791 4.985-1.514 9.355-3.272 13.364-5.379a58.534 58.534 0 002.652-1.488zm7.837-69.46a13.655 13.655 0 00-13.978.64 41.868 41.868 0 01-3.485 2.057c-3.157 1.658-6.671 3.065-10.741 4.301-6.803 2.066-14.58 3.398-24.477 4.194-18.258 1.469-36.847 1.248-53.759-.637-10.699-1.192-24.314-3.365-34.694-9.618l-.103-.063c-4.229-2.57-9.525-2.672-13.822-.263-4.316 2.419-6.903 6.823-6.919 11.781l-.017 5.295h-2.514c-3.021 0-5.937.459-8.682 1.309.81-11.731 5.136-23.105 12.41-32.397 2.789-3.565 4.34-8.072 4.366-12.729.073-11.565 6.952-22.188 17.953-27.727 18.872-9.501 39.872-12.035 57.924-13.261 4.593-.311 9.132-.579 13.635-.847 18.484-1.093 35.942-2.126 54.619-5.818a749.051 749.051 0 0010.746-2.194c3.572-.76 6.938 1.557 7.517 5.143 1.102 6.82 1.556 13.658 1.35 20.326-.266 8.635-1.181 16.01-2.797 22.547-1.451 5.876-.342 11.977 3.044 16.737 6.367 8.953 10.054 19.315 10.79 30.181a29.314 29.314 0 00-8.55-1.271h-2.652l-.019-5.774a13.553 13.553 0 00-7.145-11.912zm9.815 61.549h-2.671v-28.88h2.671c7.962 0 14.44 6.479 14.44 14.44.001 7.962-6.477 14.44-14.44 14.44z"/><path d="M85.908 279.824a7.49 7.49 0 00-7.491 7.491v14.256a7.491 7.491 0 0014.982 0v-14.256a7.49 7.49 0 00-7.491-7.491zm62.008 0a7.49 7.49 0 00-7.491 7.491v14.256a7.491 7.491 0 0014.982 0v-14.256a7.49 7.49 0 00-7.491-7.491z"/></svg>