<svg height="512" width="512" xmlns="http://www.w3.org/2000/svg"><path d="M369.232 504.51l-227.424-.377.051-30.74c.104-62.801 51.099-113.628 113.9-113.523 62.801.104 113.628 51.099 113.523 113.9z" fill="#fee45a"/><path d="M369.278 473.773l-.051 30.741-19.91-.033.051-30.741c.052-31.398-12.623-59.851-33.176-80.463-18.337-18.408-42.965-30.574-70.388-32.989 3.276-.283 6.601-.427 9.956-.422 31.398.052 59.809 12.832 80.342 33.443 20.553 20.612 33.228 49.065 33.176 80.464z" fill="#fed402"/><path d="M255.698 396.986c-12.405-.021-22.444-10.093-22.423-22.498l.086-51.771 44.921.074-.086 51.771c-.021 12.405-10.093 22.444-22.498 22.424z" fill="#d88a55"/><path d="M278.28 322.792l-.086 51.767c-.021 12.414-10.092 22.452-22.496 22.431a22.319 22.319 0 01-7.932-1.457c6.308-3.962 10.501-10.973 10.514-18.977l.089-53.797z" fill="#c57a44"/><path d="M366.031 245.801l20.095.033c16.987.028 30.781-13.72 30.809-30.707.028-16.987-13.72-30.781-30.707-30.809l-20.095-.033z" fill="#d88a55"/><path d="M416.934 215.128c-.028 16.983-13.819 30.738-30.812 30.71l-13.28-.022c13.924-3.8 24.159-16.525 24.184-31.647.015-9.079-3.655-17.288-9.588-23.251a32.803 32.803 0 00-9.446-6.616l8.233.014c8.502.014 16.181 3.471 21.737 9.045 5.555 5.584 8.986 13.275 8.972 21.767zm-271.067 30.308l-20.095-.033c-16.987-.028-30.735-13.822-30.707-30.809.028-16.987 13.822-30.735 30.809-30.707l20.095.033z" fill="#c57a44"/><path d="M255.784 344.07c-65.657-.109-118.794-53.422-118.685-119.079l.143-86.275 118.963-48.708 118.801 49.102-.143 86.275c-.109 65.657-53.423 118.794-119.079 118.685z" fill="#d88a55"/><path d="M375.01 139.11l-.143 86.271c-.109 65.664-53.427 118.796-119.081 118.687a118.688 118.688 0 01-22.883-2.248c.737.021 1.483.032 2.23.034 65.654.109 118.962-53.023 119.071-118.677l.154-92.602z" fill="#c57a44"/><path d="M256.344 7.49h-.002c-65.657-.109-118.97 53.028-119.079 118.685l-.111 67.233s20.626-25.953 32.448-47.131c2.296-4.113 6.614-6.683 11.325-6.675l150.4.249c4.711.008 9.02 2.592 11.303 6.713 11.752 21.217 32.291 47.238 32.291 47.238l.111-67.233C375.137 60.912 322 7.598 256.344 7.49z" fill="#5a5a5a"/><path d="M375.03 126.567l-.111 67.237s-10.381-13.158-20.61-28.386l.076-45.604c.081-48.979-29.466-91.089-71.745-109.357 52.981 12.053 92.484 59.495 92.39 116.11z" fill="#444"/><circle cx="304.769" cy="200.312" fill="#f3f0f3" r="31.655"/><path d="M336.426 200.316c0 17.475-14.17 31.655-31.655 31.655a31.441 31.441 0 01-16.447-4.603c15.828-1.758 28.13-15.179 28.13-31.465 0-11.454-6.081-21.49-15.198-27.052 1.148-.12 2.327-.19 3.515-.19 17.485 0 31.655 14.17 31.655 31.655z" fill="#e2dee2"/><path d="M195.949 256.482c-.145-.076-.289-.151-.429-.226-2.339-1.235-4.968 1.019-4.142 3.531 5.345 16.245 14.702 27.165 24.663 34.5 23.657 17.419 56.26 17.419 79.917 0 9.962-7.335 19.319-18.255 24.663-34.5.826-2.512-1.803-4.766-4.142-3.531l-.429.226c-37.578 19.66-82.522 19.66-120.101 0z" fill="#7ca1b1"/><path d="M320.619 259.792c-5.342 16.237-14.699 27.162-24.665 34.491-14.4 10.615-32.124 14.759-49.12 12.452 10.914-1.488 21.539-5.632 30.796-12.452s17.995-16.736 23.467-31.156a127.463 127.463 0 0014.959-6.651c.14-.07.28-.15.429-.22 2.336-1.237 4.962 1.02 4.134 3.536z" fill="#678d98"/><path d="M285.528 267.821v26.253c0 1.698-.14 3.385-.429 5.003-.11.639-.24 1.278-.399 1.897-3.086 12.982-14.769 22.628-28.699 22.628s-25.614-9.646-28.699-22.628c-.16-.619-.29-1.258-.399-1.897a28.47 28.47 0 01-.429-5.003v-26.253a129.922 129.922 0 0059.054 0z" fill="#ee6161"/><path d="M285.528 267.821v26.253c0 2.271-.307 4.706-.829 6.9-3.086 12.982-14.769 22.628-28.699 22.628-3.954 0-7.719-.769-11.164-2.177 9.576-3.745 16.896-12.013 19.313-22.179a30.888 30.888 0 00.889-7.429v-20.9c6.879-.49 13.74-1.519 20.49-3.096z" fill="#e94444"/><path d="M386.242 176.828l-3.808-.006.084-50.241C382.633 56.9 326.038.116 256.354 0h-.21c-59.723 0-111.765 42.362-123.78 100.794a7.49 7.49 0 0014.673 3.017c10.589-51.5 56.458-88.832 109.11-88.832h.184c61.422.102 111.309 50.156 111.208 111.577l-.074 44.701c-6.104-8.57-13.111-18.976-18.288-28.323-3.606-6.509-10.442-10.561-17.842-10.573l-150.4-.25h-.034c-7.386 0-14.22 4.027-17.843 10.514-5.203 9.321-12.247 19.706-18.381 28.259v-.261h-.002l.053-33.785a7.489 7.489 0 00-7.478-7.501h-.012a7.489 7.489 0 00-7.489 7.478v39.587l-3.865-.006h-.065c-10.192 0-19.779 3.961-26.999 11.158-7.236 7.212-11.23 16.81-11.247 27.027-.035 21.09 17.094 38.276 38.183 38.311l6.996.012c5.103 23.102 16.606 44.322 33.72 61.494 16.613 16.668 37.059 28.122 59.355 33.554l-.013 8.111c-20.923 5.257-40.127 16.048-55.806 31.674-22.929 22.854-35.587 53.27-35.641 85.644l-.051 30.739a7.491 7.491 0 007.476 7.501l117.553.192h.013a7.49 7.49 0 00.012-14.979l-110.064-.18.038-23.249c.08-48.175 32.389-88.88 76.442-101.77l-.005 2.84c-.014 7.999 3.089 15.526 8.737 21.192 5.647 5.666 13.163 8.794 21.162 8.807h.051c16.49 0 29.922-13.403 29.95-29.901l.005-2.899c16.883 4.964 32.347 14.109 45.116 26.92 20.029 20.096 31.034 46.789 30.987 75.163l-.038 23.25-68.013-.113h-.013a7.49 7.49 0 00-.012 14.979l75.507.127h.013a7.49 7.49 0 007.489-7.477l.051-30.74c.054-32.374-12.503-62.831-35.357-85.761-15.626-15.678-34.795-26.528-55.699-31.856l.013-8.146c46.358-11.231 82.828-48.099 93.463-94.708l6.922.011h.065c21.059 0 38.211-17.116 38.246-38.184.034-21.089-17.095-38.276-38.184-38.311zm-260.458 61.085c-12.83-.021-23.251-10.477-23.23-23.307a23.118 23.118 0 016.843-16.443 23.11 23.11 0 0116.425-6.788h.039l3.89.006v33.597c-.007 4.352.206 8.67.626 12.942zm144.923 136.636c-.015 8.248-6.728 14.947-14.972 14.947h-.024c-8.255-.014-14.959-6.74-14.946-14.996l.04-23.844c4.931.586 9.925.895 14.967.903h.214c4.993 0 9.918-.298 14.762-.864zm96.667-149.177c-.102 61.362-50.049 111.213-111.389 111.208h-.188c-29.754-.049-57.708-11.682-78.713-32.756-21.004-21.074-32.545-49.066-32.495-78.82l.047-29.004c5.164-6.638 21.325-27.842 31.502-46.073.977-1.751 2.802-2.837 4.764-2.837h.009l150.4.25c1.966.003 3.792 1.096 4.765 2.852 10.114 18.262 26.202 39.517 31.347 46.175zm18.804 12.973h-.039l-4.467-.008c.442-4.255.673-8.572.68-12.94l.056-33.597 3.807.006c12.83.021 23.251 10.477 23.23 23.307-.02 12.82-10.454 23.232-23.267 23.232z"/><path d="M186.181 214.983a7.491 7.491 0 009.984-3.538c2.333-4.895 7.242-8.058 12.504-8.058 5.36 0 10.288 3.141 12.555 8.001a7.49 7.49 0 1013.575-6.332c-4.717-10.114-14.974-16.648-26.13-16.648-11.005 0-21.221 6.513-26.026 16.592a7.49 7.49 0 003.538 9.983zm118.588-53.816c-21.585 0-39.145 17.56-39.145 39.145s17.56 39.145 39.145 39.145 39.145-17.56 39.145-39.145-17.56-39.145-39.145-39.145zm0 63.311c-13.325 0-24.166-10.841-24.166-24.166s10.841-24.166 24.166-24.166 24.166 10.841 24.166 24.166-10.841 24.166-24.166 24.166z"/><circle cx="304.769" cy="200.312" r="8.025"/><path d="M324.559 250.885c-3.259-2.753-7.803-3.245-11.593-1.243l-.387.204a121.866 121.866 0 01-29.121 10.762 117.61 117.61 0 01-3.052.666l-.019.004c-17.06 3.46-34.904 3.233-51.863-.673a121.888 121.888 0 01-29.102-10.758l-.406-.214a10.363 10.363 0 00-11.576 1.252 10.397 10.397 0 00-3.176 11.242c5.204 15.816 14.401 28.666 27.336 38.191a72.681 72.681 0 009.428 5.873c5.081 14.826 18.98 24.9 34.971 24.9 15.987 0 29.884-10.069 34.967-24.889a72.984 72.984 0 009.432-5.884c12.936-9.525 22.133-22.375 27.336-38.189a10.397 10.397 0 00-3.175-11.244zm-105.577 36.202c-6.628-5.201-11.982-11.555-15.967-19.014a135.543 135.543 0 0015.967 5.545zm59.057 6.987c0 12.047-10.007 22.039-22.039 22.039-12.038 0-22.039-10.005-22.039-22.039v-17.146a138.44 138.44 0 0044.078 0v17.146zm14.979-6.987v-13.463a136.253 136.253 0 0015.967-5.551c-3.985 7.458-9.338 13.814-15.967 19.014zM89.035 137.233a7.49 7.49 0 00.175-14.977l-40.108-.951 16.69-18.519a7.488 7.488 0 001.022-8.581L50.812 64.663l37.42-4.554a7.49 7.49 0 006.416-9.014L90.176 30.37l27.584 16.426a7.49 7.49 0 107.663-12.87L83.059 8.698a7.489 7.489 0 00-11.152 8.015l6.368 29.519-40.192 4.891a7.492 7.492 0 00-5.681 11.002l18.721 34.563-24.068 26.703a7.489 7.489 0 005.385 12.501l56.413 1.338.182.003zm394.406 44.003l-18.071-11.658 18.167-23.199a7.489 7.489 0 00-3.763-11.796l-28.001-8.325-1.379-26.578a7.49 7.49 0 00-12.648-5.032l-31.592 30.128a7.49 7.49 0 1010.337 10.84l19.789-18.873.808 15.573a7.49 7.49 0 005.345 6.791l22.528 6.698-16.444 21a7.488 7.488 0 001.837 10.911l10.512 6.781-20.299 5.146a7.49 7.49 0 103.68 14.519l36.975-9.373a7.49 7.49 0 002.219-13.553z"/></svg>